<?xml version="1.0" encoding="utf-8"?>
<!-- Generator: Adobe Illustrator 26.0.1, SVG Export Plug-In . SVG Version: 6.00 Build 0)  -->
<svg version="1.1" id="Layer_1" xmlns="http://www.w3.org/2000/svg" xmlns:xlink="http://www.w3.org/1999/xlink" x="0px" y="0px"
	 viewBox="0 0 500 500" style="enable-background:new 0 0 500 500;" xml:space="preserve">
<style type="text/css">
	.st0{fill:#FF0000;}
	.st1{fill:#FFFFFF;}
</style>
<rect class="st0" width="500" height="500"/>
<path class="st1" d="M454.51,417.1c-4.96,0-9.46-0.46-13.48-1.39c-11.15-2.16-22.01-6.66-32.54-13.48
	c-10.54-6.81-25.26-19.06-44.16-36.72c-2.19-2.01-4.77-4.44-7.73-7.28c24.36-32.23,36.54-70.55,36.54-114.96
	c0-47.41-15.03-86.76-45.09-118.06c-2.79-2.88-5.72-5.61-8.75-8.24c18.76-17.75,33.31-28.64,43.61-32.66
	c6.51-2.79,14.41-4.65,23.7-5.58c3.41-0.3,5.11-1.39,5.11-3.25c0-2.16-2.64-3.25-7.9-3.25c-1.86,0-9.22,0.23-22.08,0.7
	c-12.86,0.46-21.92,0.7-27.19,0.7c-5.58,0-10.54-0.23-14.88-0.7c-4.34-0.47-8.68-0.7-13.01-0.7c-4.65,0-6.97,0.93-6.97,2.79
	c0,1.55,1.4,2.95,4.18,4.18c4.02,1.55,6.04,4.5,6.04,8.83c0,3.1-1.71,7.05-5.11,11.85c-0.79,1.11-1.85,2.46-3.15,4.03
	c-2.6-1.64-5.26-3.23-8-4.73c-13.02-7.12-25.1-12.39-36.26-15.8c-11.16-3.41-24.33-6.04-39.51-7.9c-15.18-1.86-26.8-2.86-34.86-3.02
	c-8.06-0.15-18.9-0.23-32.54-0.23c-4.03,0-6.97,0-8.83,0c-8.06,0-16.89,0.08-26.5,0.23c-9.61,0.16-17.74,0.39-24.4,0.7
	c-6.67,0.31-10.62,0.46-11.85,0.46c-0.31,0-3.41-0.15-9.3-0.46c-5.89-0.31-13.02-0.54-21.38-0.7c-8.37-0.15-15.65-0.23-21.85-0.23
	c-4.96,0-7.44,1.24-7.44,3.72c0,1.86,1.7,2.79,5.11,2.79c6.81,0,12.09,0.46,15.8,1.39c7.13,1.55,11.85,4.18,14.18,7.9
	c2.33,3.72,3.79,9.92,4.42,18.59c0.62,9.92,0.93,43.38,0.93,100.39v81.81c0,54.23-0.78,87.84-2.32,100.86
	c-2.17,15.8-6.67,24.33-13.48,25.56c-3.41,0.63-7.75,1.24-13.02,1.86c-3.1,0-4.65,0.93-4.65,2.79c0,2.48,2.48,3.72,7.44,3.72
	c2.16,0,6.35-0.16,12.55-0.46c6.2-0.31,10.99-0.47,14.41-0.47c6.51-0.31,12.7-0.46,18.59-0.46c0.62,0,2.63,0.15,6.04,0.46
	c3.41,0.31,8.29,0.7,14.64,1.16c6.35,0.46,12.32,0.85,17.9,1.16c26.65,1.86,48.18,2.79,64.61,2.79c52.51,0,95.11-13.74,127.8-41.22
	c6.7,6.29,12.29,11.2,16.75,14.73c11.46,8.99,21.61,14.95,30.45,17.9c8.83,2.95,23.01,4.41,42.53,4.41h34.4
	c4.65,0,6.97-1.09,6.97-3.25S458.85,417.1,454.51,417.1z M351.33,257.67c0,22-3.25,43.15-9.76,63.44
	c-1.85,5.76-3.91,11.15-6.18,16.2c-10.23-10.24-22.5-22.68-36.81-37.35c-32.38-33.15-55.7-57.47-69.95-72.97
	c11.85-13.43,39.16-40.86,81.91-82.28C337.72,175.29,351.33,212.94,351.33,257.67z M240.47,98.47c20.29,5.82,39,16.55,56.17,32.18
	c-6.88,6.99-17.47,17.94-31.77,32.9c-17.04,17.82-32,33.47-44.85,46.95c-12.86,13.48-21.46,22.24-25.8,26.26v-29.75
	c0-57.01,0.3-90.48,0.93-100.39c0.48-6.73,1.53-12.14,3.13-16.26C213.53,92.09,227.6,94.79,240.47,98.47z M119.39,358.07
	c-0.63-11.77-0.93-45.39-0.93-100.86v-57.63c0-55.46,0.15-88.46,0.47-99c0-4.65,1.86-7.74,5.58-9.3c3.98-1.99,12.83-3.07,26.5-3.23
	c2.9,4.39,4.61,10.57,5.1,18.57c0.62,9.92,0.93,43.38,0.93,100.39v81.81c0,54.23-0.78,87.84-2.32,100.86
	c-1.02,7.42-2.59,13.25-4.71,17.53c-12.87-3.1-21.38-7.7-25.5-13.82C122.02,389.67,120.32,377.9,119.39,358.07z M205.49,411.96
	c-1.72-1.18-3.08-2.64-4.06-4.39c-2.32-4.18-3.95-10.15-4.88-17.9c-1.55-13.02-2.32-46.63-2.32-100.86v-47.87
	c21.68,26.03,49.19,56.63,82.5,91.8c13.75,14.52,25.8,26.94,36.14,37.26C284.67,397.56,248.87,411.55,205.49,411.96z"/>
</svg>
